<svg width="200" height="30" viewBox="0 0 681 84" fill="none" xmlns="http://www.w3.org/2000/svg">
<path d="M46.4 58.9H57.4V34.7999H66.4V24.4H37.4V34.7999H46.4V58.9ZM24.1 45.2C23.7 45.9 23.3 46.5999 22.7 47.0999C21.7 48.0999 20.2 49 18 49C14.2 49 10.9 45.6999 10.9 41.5999C10.9 37.4999 14.2 34.2 18 34.2C20.2 34.2 21.6 35.1999 22.7 36.0999C23.2 36.6999 23.7 37.3 24.1 38L35.1 36.9C34.6 34.4 33.6 32.1999 32.1 30.2999C29.6 26.9999 25.6 23.7 18.1 23.7C7.9 23.8 0 31.7999 0 41.5999C0 51.4999 7.9 59.4 18.1 59.4C25.5 59.4 29.7 56.2 32.1 52.7999C33.5 50.9 34.5 48.7 35.1 46.2L24.1 45.2Z" fill="#FB5F3D"/>
<path d="M654.4 46C651.9 45.7001 650 43.8 650 41.3C650 38.8 651.9 36.9 654.4 36.6V46ZM664.8 36.7001C667.3 37.0001 669.2 38.9001 669.2 41.4001C669.2 43.9001 667.3 45.8 664.8 46.1V36.7001ZM654.1 59.2001H665.1V55.6C674.1 55 680.2 49.0001 680.2 41.4001C680.2 33.8001 674 27.7 665 27.1V23.8H654V27.1C645 27.7 638.9 33.7 638.9 41.3C638.9 48.9 645 54.9 654 55.5V59.2001H654.1ZM618.7 39.7001V34.2001H622C623.9 34.2001 625 35.2001 625 36.9001C625 38.6001 623.9 39.6 622 39.6H618.7V39.7001ZM607.7 58.9001H618.7V49.6H623.1C631.3 49.6 636.5 44.4 636.5 37C636.5 29.6 631.3 24.4 623.1 24.4H607.8V58.9001H607.7ZM592.4 54.2001C592.4 57.3 594.5 59.4001 597.6 59.4001C600.7 59.4001 602.8 57.3 602.8 54.2001C602.8 51.1 600.7 49 597.6 49C594.5 49 592.4 51.2001 592.4 54.2001Z" fill="#FB5F3D"/>
<path d="M579.6 45.2C579.2 45.9 578.8 46.5999 578.2 47.0999C577.2 48.0999 575.7 49 573.5 49C569.7 49 566.4 45.6999 566.4 41.5999C566.4 37.4999 569.7 34.2 573.5 34.2C575.7 34.2 577.1 35.1999 578.2 36.0999C578.7 36.6999 579.2 37.3 579.6 38L590.6 36.9C590.1 34.4 589.1 32.1999 587.6 30.2999C585.1 26.9999 581.1 23.7 573.6 23.7C563.5 23.7 555.5 31.6 555.5 41.5C555.5 51.4 563.4 59.2999 573.6 59.2999C581 59.2999 585.2 56.1 587.6 52.7C589 50.8 590 48.5999 590.6 46.0999L579.6 45.2ZM527.5 58.9C527.9 59 528.4 59.1 528.9 59.2C529.8 59.4 530.8 59.5 531.9 59.5C538.5 59.5 541.7 56.2 544.5 50.2L556.6 24.5H544.8L539.6 36.7999L534.4 24.5H522.6L533.8 47.5C533.5 47.7999 533.1 48.0999 532.8 48.2999C532.1 48.6999 531.1 49.0999 529.7 49.0999C529.1 49.0999 528.5 49 528.2 49L527.5 48.7999V58.9ZM504.9 39.7V34.2H508.2C510.1 34.2 511.2 35.2 511.2 36.9C511.2 38.6 510.1 39.5999 508.2 39.5999H504.9V39.7ZM493.9 58.9H504.9V49.5999H509.3C517.5 49.5999 522.7 44.4 522.7 37C522.7 29.6 517.5 24.4 509.3 24.4H494V58.9H493.9ZM455.2 58.9H465.1L477.2 41.0999V58.9H488.2V24.4H478.3L466.2 42.2V24.4H455.2V58.9ZM432.2 50.7V45.2H436.3C438.2 45.2 439.3 46.2 439.3 47.9C439.3 49.6 438.2 50.5999 436.3 50.5999H432.2V50.7ZM432.2 37.5V32.5999H435.5C437.2 32.5999 438.2 33.6999 438.2 35.0999C438.2 36.4999 437.2 37.5999 435.5 37.5999H432.2V37.5ZM421.2 58.9H439.3C446.7 58.9 451.1 54.5 451.1 49.2999C451.1 45.7999 449.5 43.6999 447.8 42.2999C446.9 41.5 445.8 40.9 444.5 40.5C445.4 40.1 446.3 39.5 447.1 38.9C448.4 37.7 449.7 35.8999 449.7 33.0999C449.7 28.3999 445.6 24.2999 438.2 24.2999H421.2V58.9ZM382.5 58.9H394.3L395.9 52.9H405.2L406.8 58.9H418.6L407.1 24.4H394L382.5 58.9ZM398.4 44.0999L400.6 35.9L402.8 44.0999H398.4ZM347.5 58.9H358.5V46.5999H368.9V58.9H379.9V24.4H368.9V36.2H358.5V24.4H347.5V58.9ZM343.2 41.5999C343.2 31.6999 335.3 23.7999 325.1 23.7999C315 23.7999 307 31.6999 307 41.5999C307 51.4999 314.9 59.4 325.1 59.4C335.3 59.4 343.2 51.4999 343.2 41.5999ZM332.3 41.5999C332.3 45.6999 329 49 325.2 49C321.4 49 318.1 45.6999 318.1 41.5999C318.1 37.4999 321.4 34.2 325.2 34.2C329 34.2 332.3 37.4999 332.3 41.5999ZM286.5 39.7V34.2H289.8C291.7 34.2 292.8 35.2 292.8 36.9C292.8 38.6 291.7 39.5999 289.8 39.5999H286.5V39.7ZM275.5 58.9H286.5V49.5999H290.9C299.1 49.5999 304.3 44.4 304.3 37C304.3 29.6 299.1 24.4 290.9 24.4H275.6V58.9H275.5ZM271.3 41.5999C271.3 31.6999 263.4 23.7999 253.2 23.7999C243.1 23.7999 235.1 31.6999 235.1 41.5999C235.1 51.4999 243 59.4 253.2 59.4C263.3 59.4 271.3 51.4999 271.3 41.5999ZM260.3 41.5999C260.3 45.6999 257 49 253.2 49C249.4 49 246.1 45.6999 246.1 41.5999C246.1 37.4999 249.4 34.2 253.2 34.2C257 34.2 260.3 37.4999 260.3 41.5999ZM203.9 58.9H214.9V44.0999L223.4 58.9H235.7L224.7 41.4L234.6 24.4H222.3L214.9 38.9V24.4H203.9V58.9Z" fill="#ffffff"/>
<path d="M165.8 58.8999H176.7V34.7999H187.1V58.8999H198.1V24.3999H165.8V58.8999Z" fill="#FB5F3D"/>
<path d="M132.8 43.9C132.6 44.4 132.3 44.6 132 44.4C131.7 44.2 131.6 43.6 131.8 43.2C132 42.7 132.3 42.5 132.6 42.7C132.9 42.9 133 43.5 132.8 43.9ZM130 35.7C129.6 36.2 129 36.1 128.5 35.5C128 34.7999 127.9 33.7999 128.3 33.2999C128.7 32.7999 129.3 32.9 129.8 33.5C130.3 34.2 130.4 35.1 130 35.7ZM128 51.5999C127.6 52.6999 126.7 53.3 126 52.9C125.3 52.5 125 51.2999 125.4 50.2C125.8 49.1 126.7 48.5 127.4 48.9C128 49.2 128.3 50.5 128 51.5999ZM124.8 42.2999C124.7 42.7999 124.1 43.3 123.4 43.4C122.7 43.5 122.2 43.0999 122.3 42.5999C122.4 42.0999 123 41.5999 123.7 41.5C124.5 41.4 124.9 41.7999 124.8 42.2999ZM121.1 58.2999C120.2 58.5999 119.5 58.2999 119.5 57.7C119.5 57.1 120.2 56.3999 121.1 56.0999C122 55.7999 122.7 56.1 122.7 56.7C122.7 57.4 122 58.0999 121.1 58.2999ZM120.2 33.5C120.6 33.2 121.2 33.5 121.6 34.2999C121.9 35.0999 121.9 36 121.5 36.2999C121.1 36.5999 120.5 36.2999 120.1 35.5C119.7 34.7 119.8 33.9 120.2 33.5ZM123.1 26.9C123.3 26.8 123.6 26.9 123.9 27.1C124.1 27.3 124.2 27.6 124 27.7C123.8 27.8 123.5 27.7 123.2 27.5C123 27.2999 123 27.1 123.1 26.9ZM117.6 51.5999C116.9 51.8999 116.1 51.2 116 50.2C115.9 49.2 116.3 48.1 117.1 47.9C117.8 47.6 118.6 48.2999 118.7 49.2999C118.8 50.2999 118.4 51.2999 117.6 51.5999ZM116.2 28C116.6 27.9 117.2 28.1 117.6 28.5C117.9 28.9 117.8 29.2999 117.4 29.5C117 29.6 116.4 29.4 116 29C115.7 28.6 115.8 28.2 116.2 28ZM114.2 41.2999C113.7 42.7 112.6 43.3999 111.7 42.7999C110.9 42.2 110.6 40.5999 111.1 39.0999C111.6 37.6999 112.7 36.9999 113.6 37.5999C114.5 38.1999 114.7 39.8999 114.2 41.2999ZM111.4 58.2999C110.2 58.2999 109.1 57.5999 109.1 56.7999C109 56 110 55.4 111.2 55.4C112.4 55.4 113.5 56.1 113.5 56.9C113.6 57.7 112.6 58.2999 111.4 58.2999ZM107.7 25.6C107.7 25.3 108.1 24.9 108.5 24.7999C109 24.6999 109.3 24.8 109.3 25.1C109.3 25.4 108.9 25.8 108.5 25.9C108.1 26.1 107.7 25.9 107.7 25.6ZM107.1 51.0999C106.6 51.3999 106.1 51.4 106 51C105.9 50.5999 106.2 50.1 106.7 49.7C107.2 49.4 107.7 49.3999 107.8 49.7999C107.9 50.2 107.6 50.7999 107.1 51.0999ZM104.4 44.7C104 43.7999 104.2 43 104.9 42.9C105.6 42.8 106.6 43.2999 107 44.2C107.4 45.1 107.2 45.9 106.5 46C105.8 46.0999 104.8 45.5 104.4 44.7ZM103.4 34C102.6 34.6 101.8 34.5 101.6 33.7C101.4 32.9 101.9 31.8 102.6 31.2C103.4 30.6 104.2 30.7 104.4 31.5C104.7 32.2999 104.2 33.4 103.4 34ZM101.2 42C101.1 42.5999 100.8 42.9 100.5 42.7C100.2 42.5 100 41.8999 100.1 41.2999C100.2 40.7 100.5 40.3999 100.8 40.5999C101.2 40.7999 101.3 41.4 101.2 42ZM100 49.5999C99.6 49.8999 99.1 49.6999 98.9 49.0999C98.6 48.5 98.7 47.8999 99.1 47.5999C99.5 47.2999 100 47.5 100.2 48.0999C100.4 48.5999 100.3 49.2999 100 49.5999ZM110.5 31C110.8 30.9 111.1 31.2 111.2 31.7C111.3 32.2 111.1 32.7 110.7 32.9C110.3 33.1 110.1 32.7 110 32.2C110 31.7 110.2 31.2 110.5 31ZM148.9 36.7C148.7 35.5 147.6 34.0999 144.9 35.2999C142.1 36.5999 138.1 37.9 134.5 36.7999C136 35.0999 137.2 35.1 140.1 34.4C143.2 33.7 143.4 32.3 142.9 31.2C142.4 30.1 141.3 29.3 138.7 30.7C135.7 32.4 134.9 33.2 131.3 32.4C130.9 31.7 130.5 31.1 130 30.5C130.5 27.6 133.2 25.7 135.3 24.5C137.1 23.5 136.8 22.4 136.2 21.8C135.6 21.2 134.5 20.8 133.5 22.5C132.3 24.6 130 27.3 126.9 27.4C126.6 27.1 126.3 26.9 125.9 26.7C125.1 22.6 125.9 22.1 127.8 18.9C129.4 16.2 128.6 15.1 127.5 14.6C126.4 14.2 125 14.4 124.2 17.2C123.3 20.5 123.4 21.6999 120.2 23.7999C119.8 23.6999 119.3 23.6 118.8 23.4C117.1 20.4 118.3 13.2 119.2 10.6C119.9 8.39995 118.9 7.79995 118 7.69995C117.1 7.69995 115.9 8.09995 116.3 10.3C116.8 12.9 116.5 20.5 114.1 23C113.7 23 113.3 23 113 23.1C111 21.3 111.2 20.6 111 18.3C110.9 16.4 110 16.1 109.3 16.2C108.5 16.3 107.9 16.9 108.6 18.8C109.4 21 109.9 21.4 108.9 23.9C108.8 23.9 108.7 24 108.7 24C104.3 22.4 102.4 17.6 101.5 14.1C100.8 11.2 99 11.3 97.9 11.9C96.8 12.5 95.9 13.9 98.1 16.2C100.6 18.8 103.5 22.7 103.2 27C102.9 27.2 102.6 27.4 102.4 27.7C100.2 27 94.8 21.4 93.7 20.2C92.8 19.1 92.2001 19.3 91.8001 19.7C91.4001 20.1 91.2 20.7 92.5 21.6C93.9 22.5 99.4001 27.5999 100.3 29.7999C100 30.1999 99.7 30.5 99.4 30.9C94.6 31.8 90.2 28.6 87.5 25.9C85.3 23.7 83.7 24.8 83 25.9C82.3 27 82.3 28.8 85.5 29.7C89.3 30.8 94.4001 32.5999 96.3001 37.0999C96.3001 37.1999 96.3001 37.1999 96.3001 37.2999C93.8001 38.7999 90.7 37.9 88.6 36.9C86.9 36.1 86.3 37 86.1 37.7C85.9 38.4 86.3 39.4 88.2 39.2999C90.5 39.1999 93.6 39.1999 95.6 41.2999C95.6 41.7 95.6 42.1999 95.6 42.5999C94.5 43.5999 89.8 44 88.7 43.9C87.8 43.8 87.7 44.2999 87.7 44.5999C87.7 45 88 45.4 88.9 45C89.9 44.5999 94.1 43.8999 95.7 44.2999C95.8 44.8999 95.9 45.5 96 46.0999C93.7 49.3999 92.6 49.2999 89.2 50.0999C86.3 50.7999 86.1 52.0999 86.4 53.2999C86.8 54.3999 87.9 55.2999 90.6 53.7999C93.8 52 94.3001 51.2 98.3001 52.2C98.5001 52.6 98.8 53 99 53.4C98.3 57.9 94.1 60.9 90.9 62.5C88.3 63.7999 88.7 65.5 89.5 66.5C90.3 67.4 91.8 68 93.6 65.4C95.7 62.3 98.9 58.5 103.4 58.0999C104.2 58.5999 104.9 59.0999 105.8 59.5999C106.2 61.7999 105.7 62.2 104.7 63.9C103.8 65.3 104.3 66 104.9 66.3C105.5 66.6 106.3 66.5 106.8 64.8C107.3 62.8 107.2 62.2999 109.2 61C109.5 61.0999 109.7 61.2 110 61.2C112.2 64.7 111.1 69.1 109.8 72.1C108.8 74.5 110.1 75.5 111.2 75.6C112.3 75.7999 113.7 75.3 113.4 72.4C113 69.1 112.9 64.7 115.7 61.7C115.9 61.7 116.2 61.7 116.4 61.7C118.9 64.1 118.6 64.8 118.9 67.9C119.1 70.6 120.3 70.9999 121.3 70.6999C122.3 70.3999 123.1 69.5999 122.2 67.1999C121.1 64.3999 120.5 63.6 121.8 60.4C122.5 60.1 123.2 59.7999 123.8 59.5C124.9 60 125.5 61.2 125.8 62.2C126.1 63 126.5 63 126.8 62.7999C127.1 62.5999 127.3 62.1999 126.7 61.5999C126 60.8999 125.1 59.7999 125.3 58.5C125.7 58.2999 126 58 126.3 57.7999C130.4 58.3999 130.6 59.2999 132.9 62.2C134.9 64.7 136.2 64.2 137 63.2999C137.8 62.3999 138 61 135.6 59.2999C132.7 57.2999 131.6 57 130.7 53.0999C130.9 52.7999 131.1 52.3999 131.3 52.0999C133.9 51.7999 136.3 53.5 138 54.9C139.4 56.2 140.3 55.6 140.6 54.9C140.9 54.3 140.9 53.2 139.2 52.7999C137 52.2999 134 51.2 133 48.5C133.3 47.5999 133.6 46.5999 133.7 45.5999C135.1 45.1999 139.4 45.9 140.2 46.2C141 46.5 141.2 46.0999 141.3 45.7999C141.3 45.5 141.2 45 140.4 45.2C139.5 45.2999 135 45 133.9 44.0999C134 43.3999 134 42.7999 134 42.0999C137.1 39.1999 141.9 39.1 145.4 39.4C148.7 39.4 149.2 37.9 148.9 36.7Z" fill="#ffffff"/>
<path d="M146.9 41.6C146.9 46.2 145.9 50.6 144.1 54.7L91 21C97.1 13.9 105.8 9.9 115.1 9.9C132.6 9.8 146.9 24.1 146.9 41.6ZM138.6 63C132.6 69.6 124.1 73.4 115.1 73.4C97.6 73.4 83.3 59.1 83.3 41.6C83.3 37.3 84.1 33.2 85.7 29.4L138.6 63ZM153.5 25.4C151.4 20.4 148.4 16 144.6 12.2C140.8 8.4 136.3 5.4 131.4 3.3C126.2 1.1 120.7 0 115.1 0C109.5 0 104 1.1 98.9 3.3C93.9 5.4 89.5 8.4 85.7 12.2C81.9 16 78.9 20.5 76.8 25.4C74.6 30.5 73.5 36 73.5 41.6C73.5 47.2 74.6 52.7 76.8 57.8C78.9 62.8 81.9 67.2 85.7 71C89.5 74.8 94 77.8 98.9 79.9C104 82.1 109.5 83.2 115.1 83.2C120.7 83.2 126.2 82.1 131.3 79.9C136.3 77.8 140.7 74.8 144.5 71C148.3 67.2 151.3 62.7 153.4 57.8C155.6 52.7 156.7 47.2 156.7 41.6C156.7 36 155.6 30.6 153.5 25.4Z" fill="#FB5F3D"/>
<path d="M144 38.4C144.1 38.7 144.2 38.9 144.3 39.1C144.7 39.1 145.1 39.1 145.5 39.2C148.7 39.4 149.2 37.8 148.9 36.7C148.7 35.5 147.6 34.1 144.9 35.3C144.5 35.5 144.1 35.7 143.6 35.8C143.6 36.7 143.7 37.6 144 38.4Z" fill="#003188"/>
<path d="M89.5998 66.2C90.3998 67.1 91.8998 67.7 93.6998 65.1C94.3998 64 95.2998 62.8 96.2998 61.7C95.7998 61 95.1998 60.5 94.4998 60C93.2998 60.9 91.9998 61.7 90.8998 62.2C88.3998 63.6 88.8998 65.3 89.5998 66.2Z" fill="#003188"/>
<path d="M102 15.8999C101.8 15.2999 101.6 14.6999 101.5 14.0999C100.8 11.1999 99.0001 11.2999 98.0001 11.8999C96.9001 12.4999 96.0001 13.8999 98.2001 16.1999C98.4001 16.3999 98.6001 16.5999 98.8001 16.8999H98.9001C100 16.5999 101 16.2999 102 15.8999Z" fill="#003188"/>
</svg>
